<svg width="512" height="512" viewBox="0 0 512 512" fill="none" xmlns="http://www.w3.org/2000/svg">
  <!-- Background circle -->
  <circle cx="256" cy="256" r="256" fill="linear-gradient(135deg, #667eea 0%, #764ba2 100%)"/>
  
  <!-- Inner circle for depth -->
  <circle cx="256" cy="256" r="230" fill="linear-gradient(135deg, #4facfe 0%, #00f2fe 100%)"/>
  
  <!-- Simplified chart bars -->
  <rect x="150" y="200" width="30" height="100" rx="4" fill="rgba(255,255,255,0.9)"/>
  <rect x="190" y="175" width="30" height="125" rx="4" fill="rgba(255,255,255,0.9)"/>
  <rect x="230" y="150" width="30" height="150" rx="4" fill="rgba(255,255,255,0.9)"/>
  <rect x="270" y="125" width="30" height="175" rx="4" fill="rgba(255,255,255,0.9)"/>
  <rect x="310" y="100" width="30" height="200" rx="4" fill="rgba(255,255,255,0.9)"/>
  
  <!-- Dividend symbol (D) -->
  <circle cx="256" cy="350" r="50" fill="rgba(255,255,255,0.95)"/>
  <path d="M 225 320 Q 225 350 225 380 Q 225 410 256 410 Q 287 410 287 380 Q 287 350 287 320 Q 287 290 256 290 Q 225 290 225 320 Z" fill="#4facfe"/>
  <path d="M 240 300 Q 240 330 240 360 Q 240 390 256 390 Q 272 390 272 360 Q 272 330 272 300 Q 272 290 256 290 Q 240 290 240 300 Z" fill="white"/>
</svg> 