<svg width="1024" height="1024" viewBox="0 0 1024 1024" fill="none" xmlns="http://www.w3.org/2000/svg">
  <!-- Background -->
  <rect width="1024" height="1024" fill="linear-gradient(135deg, #667eea 0%, #764ba2 100%)"/>
  
  <!-- Main content area -->
  <circle cx="512" cy="512" r="400" fill="rgba(255,255,255,0.1)"/>
  
  <!-- Large chart bars -->
  <rect x="250" y="400" width="80" height="300" rx="10" fill="rgba(255,255,255,0.9)"/>
  <rect x="350" y="350" width="80" height="350" rx="10" fill="rgba(255,255,255,0.9)"/>
  <rect x="450" y="300" width="80" height="400" rx="10" fill="rgba(255,255,255,0.9)"/>
  <rect x="550" y="250" width="80" height="450" rx="10" fill="rgba(255,255,255,0.9)"/>
  <rect x="650" y="200" width="80" height="500" rx="10" fill="rgba(255,255,255,0.9)"/>
  
  <!-- Large dividend symbol -->
  <circle cx="512" cy="750" r="120" fill="rgba(255,255,255,0.95)"/>
  <path d="M 430 690 Q 430 750 430 810 Q 430 870 512 870 Q 594 870 594 810 Q 594 750 594 690 Q 594 630 512 630 Q 430 630 430 690 Z" fill="#4facfe"/>
  <path d="M 470 660 Q 470 720 470 780 Q 470 840 512 840 Q 554 840 554 780 Q 554 720 554 660 Q 554 630 512 630 Q 470 630 470 660 Z" fill="white"/>
  
  <!-- App name -->
  <text x="512" y="950" text-anchor="middle" fill="white" font-family="Arial, sans-serif" font-size="48" font-weight="bold">Dividend Tracker</text>
  
  <!-- Growth indicators -->
  <circle cx="150" cy="400" r="40" fill="rgba(255,215,0,0.9)"/>
  <circle cx="150" cy="400" r="35" fill="rgba(255,215,0,0.7)"/>
  <text x="150" y="415" text-anchor="middle" fill="white" font-family="Arial, sans-serif" font-size="24" font-weight="bold">$</text>
  
  <circle cx="874" cy="400" r="40" fill="rgba(255,215,0,0.9)"/>
  <circle cx="874" cy="400" r="35" fill="rgba(255,215,0,0.7)"/>
  <text x="874" y="415" text-anchor="middle" fill="white" font-family="Arial, sans-serif" font-size="24" font-weight="bold">$</text>
  
  <!-- Growth arrow -->
  <path d="M 800 500 L 850 450 L 900 500 L 850 480 L 850 550 Z" fill="rgba(76,175,80,0.9)"/>
</svg> 